<?xml version="1.0" encoding="UTF-8" standalone="no"?>
<!DOCTYPE svg PUBLIC "-//W3C//DTD SVG 1.1//EN"
 "http://www.w3.org/Graphics/SVG/1.1/DTD/svg11.dtd">
<!-- Generated by graphviz version 2.40.1 (20161225.0304)
 -->
<!-- Title: dependencies Pages: 1 -->
<svg width="1746pt" height="284pt"
 viewBox="0.00 0.00 1746.00 284.00" xmlns="http://www.w3.org/2000/svg" xmlns:xlink="http://www.w3.org/1999/xlink">
<g id="graph0" class="graph" transform="scale(1 1) rotate(0) translate(4 280)">
<title>dependencies</title>
<polygon fill="#ffffff" stroke="transparent" points="-4,4 -4,-280 1742,-280 1742,4 -4,4"/>
<text text-anchor="start" x="848.0091" y="-42.4" font-family="sans-serif" font-weight="bold" font-size="14.00" fill="#000000">Legend</text>
<polygon fill="#ffffb3" stroke="transparent" points="635,-10 635,-30 655,-30 655,-10 635,-10"/>
<text text-anchor="start" x="658.629" y="-15.4" font-family="sans-serif" font-size="14.00" fill="#000000"> &#160;Declarations</text>
<polygon fill="#8dd3c7" stroke="transparent" points="748,-10 748,-30 768,-30 768,-10 748,-10"/>
<text text-anchor="start" x="771.7251" y="-15.4" font-family="sans-serif" font-size="14.00" fill="#000000"> &#160;Module</text>
<polygon fill="#80b1d3" stroke="transparent" points="834,-10 834,-30 854,-30 854,-10 834,-10"/>
<text text-anchor="start" x="857.7812" y="-15.4" font-family="sans-serif" font-size="14.00" fill="#000000"> &#160;Bootstrap</text>
<polygon fill="#fdb462" stroke="transparent" points="931,-10 931,-30 951,-30 951,-10 931,-10"/>
<text text-anchor="start" x="954.6732" y="-15.4" font-family="sans-serif" font-size="14.00" fill="#000000"> &#160;Providers</text>
<polygon fill="#fb8072" stroke="transparent" points="1027,-10 1027,-30 1047,-30 1047,-10 1027,-10"/>
<text text-anchor="start" x="1050.7258" y="-15.4" font-family="sans-serif" font-size="14.00" fill="#000000"> &#160;Exports</text>
<g id="clust1" class="cluster">
<title>cluster_AppModule</title>
<polygon fill="none" stroke="#000000" stroke-dasharray="1,5" points="8,-70 8,-268 657,-268 657,-70 8,-70"/>
</g>
<g id="clust2" class="cluster">
<title>cluster_AppModule_declarations</title>
<polygon fill="none" stroke="#000000" points="378,-78 378,-130 649,-130 649,-78 378,-78"/>
</g>
<g id="clust5" class="cluster">
<title>cluster_AppModule_imports</title>
<polygon fill="none" stroke="#000000" points="226,-78 226,-130 370,-130 370,-78 226,-78"/>
</g>
<g id="clust7" class="cluster">
<title>cluster_AppModule_bootstrap</title>
<polygon fill="none" stroke="#000000" points="313,-208 313,-260 437,-260 437,-208 313,-208"/>
</g>
<g id="clust8" class="cluster">
<title>cluster_AppModule_providers</title>
<polygon fill="none" stroke="#000000" points="16,-78 16,-130 218,-130 218,-78 16,-78"/>
</g>
<g id="clust15" class="cluster">
<title>cluster_HomePageModule</title>
<polygon fill="none" stroke="#000000" stroke-dasharray="1,5" points="665,-70 665,-195 912,-195 912,-70 665,-70"/>
</g>
<g id="clust16" class="cluster">
<title>cluster_HomePageModule_declarations</title>
<polygon fill="none" stroke="#000000" points="673,-78 673,-130 904,-130 904,-78 673,-78"/>
</g>
<g id="clust23" class="cluster">
<title>cluster_LoginPageModule</title>
<polygon fill="none" stroke="#000000" stroke-dasharray="1,5" points="1106,-70 1106,-195 1242,-195 1242,-70 1106,-70"/>
</g>
<g id="clust24" class="cluster">
<title>cluster_LoginPageModule_declarations</title>
<polygon fill="none" stroke="#000000" points="1128,-78 1128,-130 1220,-130 1220,-78 1128,-78"/>
</g>
<g id="clust30" class="cluster">
<title>cluster_QrIdFormPageModule</title>
<polygon fill="none" stroke="#000000" stroke-dasharray="1,5" points="1250,-70 1250,-195 1410,-195 1410,-70 1250,-70"/>
</g>
<g id="clust31" class="cluster">
<title>cluster_QrIdFormPageModule_declarations</title>
<polygon fill="none" stroke="#000000" points="1272,-78 1272,-130 1388,-130 1388,-78 1272,-78"/>
</g>
<g id="clust37" class="cluster">
<title>cluster_QrScannerPageModule</title>
<polygon fill="none" stroke="#000000" stroke-dasharray="1,5" points="1418,-70 1418,-195 1580,-195 1580,-70 1418,-70"/>
</g>
<g id="clust38" class="cluster">
<title>cluster_QrScannerPageModule_declarations</title>
<polygon fill="none" stroke="#000000" points="1439,-78 1439,-130 1559,-130 1559,-78 1439,-78"/>
</g>
<g id="clust44" class="cluster">
<title>cluster_ShowQrCodePageModule</title>
<polygon fill="none" stroke="#000000" stroke-dasharray="1,5" points="920,-143 920,-195 1098,-195 1098,-143 920,-143"/>
</g>
<g id="clust51" class="cluster">
<title>cluster_SignupPageModule</title>
<polygon fill="none" stroke="#000000" stroke-dasharray="1,5" points="1588,-70 1588,-195 1730,-195 1730,-70 1588,-70"/>
</g>
<g id="clust52" class="cluster">
<title>cluster_SignupPageModule_declarations</title>
<polygon fill="none" stroke="#000000" points="1610,-78 1610,-130 1708,-130 1708,-78 1610,-78"/>
</g>
<!-- AppComponent -->
<g id="node1" class="node">
<title>AppComponent</title>
<polygon fill="#ffffb3" stroke="#000000" points="640.9399,-122 535.0601,-122 535.0601,-86 640.9399,-86 640.9399,-122"/>
<text text-anchor="middle" x="588" y="-99.8" font-family="Times,serif" font-size="14.00" fill="#000000">AppComponent</text>
</g>
<!-- AppModule -->
<g id="node3" class="node">
<title>AppModule</title>
<polygon fill="#8dd3c7" stroke="#000000" points="416.6571,-187 413.6571,-191 392.6571,-191 389.6571,-187 333.3429,-187 333.3429,-151 416.6571,-151 416.6571,-187"/>
<text text-anchor="middle" x="375" y="-164.8" font-family="Times,serif" font-size="14.00" fill="#000000">AppModule</text>
</g>
<!-- AppComponent&#45;&gt;AppModule -->
<g id="edge1" class="edge">
<title>AppComponent&#45;&gt;AppModule</title>
<path fill="none" stroke="#000000" d="M588,-122.1061C588,-141.3391 588,-169 588,-169 588,-169 426.8278,-169 426.8278,-169"/>
<polygon fill="#000000" stroke="#000000" points="426.8278,-165.5001 416.8278,-169 426.8278,-172.5001 426.8278,-165.5001"/>
</g>
<!-- FillFormComponent -->
<g id="node2" class="node">
<title>FillFormComponent</title>
<polygon fill="#ffffb3" stroke="#000000" points="517.6207,-122 386.3793,-122 386.3793,-86 517.6207,-86 517.6207,-122"/>
<text text-anchor="middle" x="452" y="-99.8" font-family="Times,serif" font-size="14.00" fill="#000000">FillFormComponent</text>
</g>
<!-- FillFormComponent&#45;&gt;AppModule -->
<g id="edge2" class="edge">
<title>FillFormComponent&#45;&gt;AppModule</title>
<path fill="none" stroke="#000000" d="M401.634,-122.1061C401.634,-122.1061 401.634,-140.991 401.634,-140.991"/>
<polygon fill="#000000" stroke="#000000" points="398.134,-140.9909 401.634,-150.991 405.134,-140.991 398.134,-140.9909"/>
</g>
<!-- AppComponent  -->
<g id="node5" class="node">
<title>AppComponent </title>
<polygon fill="#80b1d3" stroke="#000000" points="429.439,-252 320.561,-252 320.561,-216 429.439,-216 429.439,-252"/>
<text text-anchor="middle" x="375" y="-229.8" font-family="Times,serif" font-size="14.00" fill="#000000">AppComponent </text>
</g>
<!-- AppModule&#45;&gt;AppComponent  -->
<g id="edge4" class="edge">
<title>AppModule&#45;&gt;AppComponent </title>
<path fill="none" stroke="#000000" stroke-dasharray="1,5" d="M375,-187.1061C375,-187.1061 375,-205.991 375,-205.991"/>
<polygon fill="#000000" stroke="#000000" points="371.5001,-205.9909 375,-215.991 378.5001,-205.991 371.5001,-205.9909"/>
</g>
<!-- AppRoutingModule -->
<g id="node4" class="node">
<title>AppRoutingModule</title>
<polygon fill="#8dd3c7" stroke="#000000" points="362.2744,-122 359.2744,-126 338.2744,-126 335.2744,-122 233.7256,-122 233.7256,-86 362.2744,-86 362.2744,-122"/>
<text text-anchor="middle" x="298" y="-99.8" font-family="Times,serif" font-size="14.00" fill="#000000">AppRoutingModule</text>
</g>
<!-- AppRoutingModule&#45;&gt;AppModule -->
<g id="edge3" class="edge">
<title>AppRoutingModule&#45;&gt;AppModule</title>
<path fill="none" stroke="#000000" d="M347.7795,-122.1061C347.7795,-122.1061 347.7795,-140.991 347.7795,-140.991"/>
<polygon fill="#000000" stroke="#000000" points="344.2795,-140.9909 347.7795,-150.991 351.2795,-140.991 344.2795,-140.9909"/>
</g>
<!-- AutenticationService -->
<g id="node6" class="node">
<title>AutenticationService</title>
<ellipse fill="#fdb462" stroke="#000000" cx="117" cy="-104" rx="92.6112" ry="18"/>
<text text-anchor="middle" x="117" y="-99.8" font-family="Times,serif" font-size="14.00" fill="#000000">AutenticationService</text>
</g>
<!-- AutenticationService&#45;&gt;AppModule -->
<g id="edge5" class="edge">
<title>AutenticationService&#45;&gt;AppModule</title>
<path fill="none" stroke="#000000" d="M117,-122.1061C117,-141.3391 117,-169 117,-169 117,-169 323.2611,-169 323.2611,-169"/>
<polygon fill="#000000" stroke="#000000" points="323.2611,-172.5001 333.2611,-169 323.2611,-165.5001 323.2611,-172.5001"/>
</g>
<!-- HomePage -->
<g id="node7" class="node">
<title>HomePage</title>
<polygon fill="#ffffb3" stroke="#000000" points="758.9248,-122 681.0752,-122 681.0752,-86 758.9248,-86 758.9248,-122"/>
<text text-anchor="middle" x="720" y="-99.8" font-family="Times,serif" font-size="14.00" fill="#000000">HomePage</text>
</g>
<!-- HomePageModule -->
<g id="node9" class="node">
<title>HomePageModule</title>
<polygon fill="#8dd3c7" stroke="#000000" points="844.4734,-187 841.4734,-191 820.4734,-191 817.4734,-187 723.5266,-187 723.5266,-151 844.4734,-151 844.4734,-187"/>
<text text-anchor="middle" x="784" y="-164.8" font-family="Times,serif" font-size="14.00" fill="#000000">HomePageModule</text>
</g>
<!-- HomePage&#45;&gt;HomePageModule -->
<g id="edge6" class="edge">
<title>HomePage&#45;&gt;HomePageModule</title>
<path fill="none" stroke="#000000" d="M741.1126,-122.1061C741.1126,-122.1061 741.1126,-140.991 741.1126,-140.991"/>
<polygon fill="#000000" stroke="#000000" points="737.6126,-140.9909 741.1126,-150.991 744.6126,-140.991 737.6126,-140.9909"/>
</g>
<!-- ShowQrCodePage -->
<g id="node8" class="node">
<title>ShowQrCodePage</title>
<polygon fill="#ffffb3" stroke="#000000" points="895.9201,-122 776.0799,-122 776.0799,-86 895.9201,-86 895.9201,-122"/>
<text text-anchor="middle" x="836" y="-99.8" font-family="Times,serif" font-size="14.00" fill="#000000">ShowQrCodePage</text>
</g>
<!-- ShowQrCodePage&#45;&gt;HomePageModule -->
<g id="edge7" class="edge">
<title>ShowQrCodePage&#45;&gt;HomePageModule</title>
<path fill="none" stroke="#000000" d="M810.3885,-122.1061C810.3885,-122.1061 810.3885,-140.991 810.3885,-140.991"/>
<polygon fill="#000000" stroke="#000000" points="806.8886,-140.9909 810.3885,-150.991 813.8886,-140.991 806.8886,-140.9909"/>
</g>
<!-- ShowQrCodePageModule -->
<g id="node16" class="node">
<title>ShowQrCodePageModule</title>
<polygon fill="#8dd3c7" stroke="#000000" points="1090.4692,-187 1087.4692,-191 1066.4692,-191 1063.4692,-187 927.5308,-187 927.5308,-151 1090.4692,-151 1090.4692,-187"/>
<text text-anchor="middle" x="1009" y="-164.8" font-family="Times,serif" font-size="14.00" fill="#000000">ShowQrCodePageModule</text>
</g>
<!-- ShowQrCodePage&#45;&gt;ShowQrCodePageModule -->
<g id="edge11" class="edge">
<title>ShowQrCodePage&#45;&gt;ShowQrCodePageModule</title>
<path fill="none" stroke="#000000" d="M870.0982,-122.1061C870.0982,-141.3391 870.0982,-169 870.0982,-169 870.0982,-169 917.3968,-169 917.3968,-169"/>
<polygon fill="#000000" stroke="#000000" points="917.3969,-172.5001 927.3968,-169 917.3968,-165.5001 917.3969,-172.5001"/>
</g>
<!-- LoginPage -->
<g id="node10" class="node">
<title>LoginPage</title>
<polygon fill="#ffffb3" stroke="#000000" points="1212.1558,-122 1135.8442,-122 1135.8442,-86 1212.1558,-86 1212.1558,-122"/>
<text text-anchor="middle" x="1174" y="-99.8" font-family="Times,serif" font-size="14.00" fill="#000000">LoginPage</text>
</g>
<!-- LoginPageModule -->
<g id="node11" class="node">
<title>LoginPageModule</title>
<polygon fill="#8dd3c7" stroke="#000000" points="1234.205,-187 1231.205,-191 1210.205,-191 1207.205,-187 1113.795,-187 1113.795,-151 1234.205,-151 1234.205,-187"/>
<text text-anchor="middle" x="1174" y="-164.8" font-family="Times,serif" font-size="14.00" fill="#000000">LoginPageModule</text>
</g>
<!-- LoginPage&#45;&gt;LoginPageModule -->
<g id="edge8" class="edge">
<title>LoginPage&#45;&gt;LoginPageModule</title>
<path fill="none" stroke="#000000" d="M1174,-122.1061C1174,-122.1061 1174,-140.991 1174,-140.991"/>
<polygon fill="#000000" stroke="#000000" points="1170.5001,-140.9909 1174,-150.991 1177.5001,-140.991 1170.5001,-140.9909"/>
</g>
<!-- QrIdFormPage -->
<g id="node12" class="node">
<title>QrIdFormPage</title>
<polygon fill="#ffffb3" stroke="#000000" points="1379.9734,-122 1280.0266,-122 1280.0266,-86 1379.9734,-86 1379.9734,-122"/>
<text text-anchor="middle" x="1330" y="-99.8" font-family="Times,serif" font-size="14.00" fill="#000000">QrIdFormPage</text>
</g>
<!-- QrIdFormPageModule -->
<g id="node13" class="node">
<title>QrIdFormPageModule</title>
<polygon fill="#8dd3c7" stroke="#000000" points="1401.524,-187 1398.524,-191 1377.524,-191 1374.524,-187 1258.476,-187 1258.476,-151 1401.524,-151 1401.524,-187"/>
<text text-anchor="middle" x="1330" y="-164.8" font-family="Times,serif" font-size="14.00" fill="#000000">QrIdFormPageModule</text>
</g>
<!-- QrIdFormPage&#45;&gt;QrIdFormPageModule -->
<g id="edge9" class="edge">
<title>QrIdFormPage&#45;&gt;QrIdFormPageModule</title>
<path fill="none" stroke="#000000" d="M1330,-122.1061C1330,-122.1061 1330,-140.991 1330,-140.991"/>
<polygon fill="#000000" stroke="#000000" points="1326.5001,-140.9909 1330,-150.991 1333.5001,-140.991 1326.5001,-140.9909"/>
</g>
<!-- QrScannerPage -->
<g id="node14" class="node">
<title>QrScannerPage</title>
<polygon fill="#ffffb3" stroke="#000000" points="1550.566,-122 1447.434,-122 1447.434,-86 1550.566,-86 1550.566,-122"/>
<text text-anchor="middle" x="1499" y="-99.8" font-family="Times,serif" font-size="14.00" fill="#000000">QrScannerPage</text>
</g>
<!-- QrScannerPageModule -->
<g id="node15" class="node">
<title>QrScannerPageModule</title>
<polygon fill="#8dd3c7" stroke="#000000" points="1572.1163,-187 1569.1163,-191 1548.1163,-191 1545.1163,-187 1425.8837,-187 1425.8837,-151 1572.1163,-151 1572.1163,-187"/>
<text text-anchor="middle" x="1499" y="-164.8" font-family="Times,serif" font-size="14.00" fill="#000000">QrScannerPageModule</text>
</g>
<!-- QrScannerPage&#45;&gt;QrScannerPageModule -->
<g id="edge10" class="edge">
<title>QrScannerPage&#45;&gt;QrScannerPageModule</title>
<path fill="none" stroke="#000000" d="M1499,-122.1061C1499,-122.1061 1499,-140.991 1499,-140.991"/>
<polygon fill="#000000" stroke="#000000" points="1495.5001,-140.9909 1499,-150.991 1502.5001,-140.991 1495.5001,-140.9909"/>
</g>
<!-- SignupPage -->
<g id="node17" class="node">
<title>SignupPage</title>
<polygon fill="#ffffb3" stroke="#000000" points="1700.3851,-122 1617.6149,-122 1617.6149,-86 1700.3851,-86 1700.3851,-122"/>
<text text-anchor="middle" x="1659" y="-99.8" font-family="Times,serif" font-size="14.00" fill="#000000">SignupPage</text>
</g>
<!-- SignupPageModule -->
<g id="node18" class="node">
<title>SignupPageModule</title>
<polygon fill="#8dd3c7" stroke="#000000" points="1722.4356,-187 1719.4356,-191 1698.4356,-191 1695.4356,-187 1595.5644,-187 1595.5644,-151 1722.4356,-151 1722.4356,-187"/>
<text text-anchor="middle" x="1659" y="-164.8" font-family="Times,serif" font-size="14.00" fill="#000000">SignupPageModule</text>
</g>
<!-- SignupPage&#45;&gt;SignupPageModule -->
<g id="edge12" class="edge">
<title>SignupPage&#45;&gt;SignupPageModule</title>
<path fill="none" stroke="#000000" d="M1659,-122.1061C1659,-122.1061 1659,-140.991 1659,-140.991"/>
<polygon fill="#000000" stroke="#000000" points="1655.5001,-140.9909 1659,-150.991 1662.5001,-140.991 1655.5001,-140.9909"/>
</g>
</g>
</svg>
