<?xml version="1.0" encoding="UTF-8" standalone="no"?>
<!DOCTYPE svg PUBLIC "-//W3C//DTD SVG 1.1//EN"
 "http://www.w3.org/Graphics/SVG/1.1/DTD/svg11.dtd">
<!-- Generated by graphviz version 2.40.1 (20161225.0304)
 -->
<!-- Title: dependencies Pages: 1 -->
<svg width="504pt" height="211pt"
 viewBox="0.00 0.00 504.00 211.00" xmlns="http://www.w3.org/2000/svg" xmlns:xlink="http://www.w3.org/1999/xlink">
<g id="graph0" class="graph" transform="scale(1 1) rotate(0) translate(4 207)">
<title>dependencies</title>
<polygon fill="#ffffff" stroke="transparent" points="-4,4 -4,-207 500,-207 500,4 -4,4"/>
<text text-anchor="start" x="227.0091" y="-42.4" font-family="sans-serif" font-weight="bold" font-size="14.00" fill="#000000">Legend</text>
<polygon fill="#ffffb3" stroke="transparent" points="14,-10 14,-30 34,-30 34,-10 14,-10"/>
<text text-anchor="start" x="37.629" y="-15.4" font-family="sans-serif" font-size="14.00" fill="#000000"> &#160;Declarations</text>
<polygon fill="#8dd3c7" stroke="transparent" points="127,-10 127,-30 147,-30 147,-10 127,-10"/>
<text text-anchor="start" x="150.7251" y="-15.4" font-family="sans-serif" font-size="14.00" fill="#000000"> &#160;Module</text>
<polygon fill="#80b1d3" stroke="transparent" points="213,-10 213,-30 233,-30 233,-10 213,-10"/>
<text text-anchor="start" x="236.7812" y="-15.4" font-family="sans-serif" font-size="14.00" fill="#000000"> &#160;Bootstrap</text>
<polygon fill="#fdb462" stroke="transparent" points="310,-10 310,-30 330,-30 330,-10 310,-10"/>
<text text-anchor="start" x="333.6732" y="-15.4" font-family="sans-serif" font-size="14.00" fill="#000000"> &#160;Providers</text>
<polygon fill="#fb8072" stroke="transparent" points="406,-10 406,-30 426,-30 426,-10 406,-10"/>
<text text-anchor="start" x="429.7258" y="-15.4" font-family="sans-serif" font-size="14.00" fill="#000000"> &#160;Exports</text>
<g id="clust1" class="cluster">
<title>cluster_HomePageModule</title>
<polygon fill="none" stroke="#000000" stroke-dasharray="1,5" points="124.5,-70 124.5,-195 371.5,-195 371.5,-70 124.5,-70"/>
</g>
<g id="clust2" class="cluster">
<title>cluster_HomePageModule_declarations</title>
<polygon fill="none" stroke="#000000" points="132.5,-78 132.5,-130 363.5,-130 363.5,-78 132.5,-78"/>
</g>
<!-- HomePage -->
<g id="node1" class="node">
<title>HomePage</title>
<polygon fill="#ffffb3" stroke="#000000" points="355.4248,-122 277.5752,-122 277.5752,-86 355.4248,-86 355.4248,-122"/>
<text text-anchor="middle" x="316.5" y="-99.8" font-family="Times,serif" font-size="14.00" fill="#000000">HomePage</text>
</g>
<!-- HomePageModule -->
<g id="node3" class="node">
<title>HomePageModule</title>
<polygon fill="#8dd3c7" stroke="#000000" points="311.9734,-187 308.9734,-191 287.9734,-191 284.9734,-187 191.0266,-187 191.0266,-151 311.9734,-151 311.9734,-187"/>
<text text-anchor="middle" x="251.5" y="-164.8" font-family="Times,serif" font-size="14.00" fill="#000000">HomePageModule</text>
</g>
<!-- HomePage&#45;&gt;HomePageModule -->
<g id="edge1" class="edge">
<title>HomePage&#45;&gt;HomePageModule</title>
<path fill="none" stroke="#000000" d="M294.8875,-122.1061C294.8875,-122.1061 294.8875,-140.991 294.8875,-140.991"/>
<polygon fill="#000000" stroke="#000000" points="291.3875,-140.9909 294.8875,-150.991 298.3875,-140.991 291.3875,-140.9909"/>
</g>
<!-- ShowQrCodePage -->
<g id="node2" class="node">
<title>ShowQrCodePage</title>
<polygon fill="#ffffb3" stroke="#000000" points="260.4201,-122 140.5799,-122 140.5799,-86 260.4201,-86 260.4201,-122"/>
<text text-anchor="middle" x="200.5" y="-99.8" font-family="Times,serif" font-size="14.00" fill="#000000">ShowQrCodePage</text>
</g>
<!-- ShowQrCodePage&#45;&gt;HomePageModule -->
<g id="edge2" class="edge">
<title>ShowQrCodePage&#45;&gt;HomePageModule</title>
<path fill="none" stroke="#000000" d="M225.6115,-122.1061C225.6115,-122.1061 225.6115,-140.991 225.6115,-140.991"/>
<polygon fill="#000000" stroke="#000000" points="222.1116,-140.9909 225.6115,-150.991 229.1116,-140.991 222.1116,-140.9909"/>
</g>
</g>
</svg>
